<?xml version="1.0" encoding="UTF-8"?>
<svg version="1.1" xmlns="http://www.w3.org/2000/svg" width="320" height="320">
<path d="M0 0 C105.6 0 211.2 0 320 0 C320 105.6 320 211.2 320 320 C214.4 320 108.8 320 0 320 C0 214.4 0 108.8 0 0 Z " fill="#FEFEFE" transform="translate(0,0)"/>
<path d="M0 0 C25.90554044 17.49120889 43.42208984 41.62042955 49.68359375 72.35546875 C54.43277627 100.81781088 48.33052443 129.2238418 31.609375 152.8671875 C31.07828125 153.57101563 30.5471875 154.27484375 30 155 C29.01773438 156.30324219 29.01773438 156.30324219 28.015625 157.6328125 C11.67968859 178.42927056 -12.47538213 192.85066531 -38.61328125 197.4609375 C-41.41798243 197.78371804 -44.17733699 197.91415258 -47 198 C-47.69834961 198.03109863 -48.39669922 198.06219727 -49.11621094 198.09423828 C-79.79464052 199.36558511 -106.63675462 189.0687952 -129.49609375 168.78515625 C-149.80587168 149.32015244 -161.71556187 122.86421135 -162.40039062 94.88134766 C-162.68456257 66.59502179 -154.36989515 40.26651056 -134.50854492 19.50024414 C-133.01959669 17.98539296 -131.51442226 16.48934396 -130 15 C-129.17628906 14.17757812 -128.35257813 13.35515625 -127.50390625 12.5078125 C-112.35950749 -1.86568911 -94.13060218 -9.60529107 -74 -14 C-73.38511719 -14.1757959 -72.77023438 -14.3515918 -72.13671875 -14.53271484 C-48.23677697 -19.75946171 -20.65797839 -12.1583742 0 0 Z " fill="#FAF9F9" transform="translate(216,69)"/>
<path d="M0 0 C7.239375 -0.0825 14.47875 -0.165 21.9375 -0.25 C24.20488037 -0.28641602 26.47226074 -0.32283203 28.80834961 -0.36035156 C30.63133806 -0.37204802 32.45433707 -0.38223758 34.27734375 -0.390625 C35.20293091 -0.41108887 36.12851807 -0.43155273 37.08215332 -0.45263672 C44.80285011 -0.45672661 50.20930145 1.80981861 56.8125 5.625 C62.44247923 11.73754888 63.61870425 19.14613881 63.328125 27.23046875 C62.6985633 32.54426928 60.6573007 37.02467315 57 41 C56.34 41 55.68 41 55 41 C55.3609375 41.53625 55.721875 42.0725 56.09375 42.625 C59.79789872 48.88089562 60.27789453 53.99675962 59.97265625 61.08691406 C59.80986395 66.43616721 60.73662132 70.24078957 63.125 74.984375 C64 77 64 77 64 81 C53.44 81 42.88 81 32 81 C33.13425477 77.59723568 34.08405449 76.8894922 36.8125 74.6875 C42.0453969 70.24094181 46.57557018 64.91631206 47.1875 57.828125 C47.295734 53.68817441 47.36896654 50.54595308 45 47 C40.69500519 43.93492305 35.42652593 44.29233173 30.34375 44.37109375 C27.01168954 44.71378027 27.01168954 44.71378027 25.03125 46.66015625 C23.572824 48.88013487 23.572824 48.88013487 22.3515625 51.375 C20.87088972 54.25075754 19.10021013 56.42082187 17 58.875 C12.90754795 63.89862183 9.90128695 69.22454093 7 75 C6.65839844 75.66902344 6.31679687 76.33804688 5.96484375 77.02734375 C5.29796421 78.34559401 4.64628244 79.67153055 4 81 C2.68 81 1.36 81 0 81 C0 54.27 0 27.54 0 0 Z " fill="#FBC544" transform="translate(128,120)"/>
<path d="M0 0 C25.90554044 17.49120889 43.42208984 41.62042955 49.68359375 72.35546875 C54.43277627 100.81781088 48.33052443 129.2238418 31.609375 152.8671875 C31.07828125 153.57101563 30.5471875 154.27484375 30 155 C29.01773438 156.30324219 29.01773438 156.30324219 28.015625 157.6328125 C11.67968859 178.42927056 -12.47538213 192.85066531 -38.61328125 197.4609375 C-41.41798243 197.78371804 -44.17733699 197.91415258 -47 198 C-47.69834961 198.03109863 -48.39669922 198.06219727 -49.11621094 198.09423828 C-79.79464052 199.36558511 -106.63675462 189.0687952 -129.49609375 168.78515625 C-149.80587168 149.32015244 -161.71556187 122.86421135 -162.40039062 94.88134766 C-162.68456257 66.59502179 -154.36989515 40.26651056 -134.50854492 19.50024414 C-133.01959669 17.98539296 -131.51442226 16.48934396 -130 15 C-129.17628906 14.17757812 -128.35257813 13.35515625 -127.50390625 12.5078125 C-112.35950749 -1.86568911 -94.13060218 -9.60529107 -74 -14 C-73.38511719 -14.1757959 -72.77023438 -14.3515918 -72.13671875 -14.53271484 C-48.23677697 -19.75946171 -20.65797839 -12.1583742 0 0 Z M-104 -2 C-105.05832031 -1.46503906 -106.11664063 -0.93007812 -107.20703125 -0.37890625 C-115.3560078 4.07472838 -122.13889354 9.81390806 -129 16 C-129.66773438 16.58394531 -130.33546875 17.16789062 -131.0234375 17.76953125 C-145.94984892 31.60974841 -154.12769665 50.61798907 -158.55444336 70.05566406 C-158.84621872 71.32892378 -159.17292524 72.5947937 -159.53759766 73.84912109 C-165.16071677 100.00523482 -157.04423182 127.81354245 -143.0625 149.8125 C-142.06398206 151.2243829 -141.04161597 152.61960602 -140 154 C-139.34515625 154.86882812 -138.6903125 155.73765625 -138.015625 156.6328125 C-121.60693779 177.52188594 -97.93873563 191.52761584 -71.60888672 195.6953125 C-59.11657444 197.15426868 -45.20715067 197.22039472 -33 194 C-31.77796875 193.68160156 -30.5559375 193.36320313 -29.296875 193.03515625 C-1.81310539 185.37783629 22.00281437 168.00547144 36.12109375 143.015625 C49.15777517 118.70522975 53.56479003 89.75711938 45.63720703 63.05566406 C45.42692871 62.37729492 45.21665039 61.69892578 45 61 C44.79101074 60.31647461 44.58202148 59.63294922 44.36669922 58.92871094 C39.63926252 43.97797105 32.06418809 31.15147951 21 20 C19.7934375 18.7315625 19.7934375 18.7315625 18.5625 17.4375 C17.716875 16.633125 16.87125 15.82875 16 15 C15.31808594 14.33484375 14.63617188 13.6696875 13.93359375 12.984375 C-8.67526695 -8.35432499 -36.52911669 -13.97517217 -66.58251953 -13.17480469 C-80.00005618 -12.48849548 -92.10622299 -8.01334324 -104 -2 Z " fill="#2B2B2B" transform="translate(216,69)"/>
<path d="M0 0 C7.239375 -0.0825 14.47875 -0.165 21.9375 -0.25 C24.20488037 -0.28641602 26.47226074 -0.32283203 28.80834961 -0.36035156 C30.63133806 -0.37204802 32.45433707 -0.38223758 34.27734375 -0.390625 C35.20293091 -0.41108887 36.12851807 -0.43155273 37.08215332 -0.45263672 C44.80285011 -0.45672661 50.20930145 1.80981861 56.8125 5.625 C62.43970277 11.73453444 63.6311868 19.1516431 63.3203125 27.234375 C62.70905757 32.51203955 60.95894817 35.75595914 57.6875 40 C55 42 55 42 51.6875 41.8125 C50.800625 41.544375 49.91375 41.27625 49 41 C49 40.34 49 39.68 49 39 C49.94875 38.401875 50.8975 37.80375 51.875 37.1875 C55.34424724 34.75902694 55.83438801 33.93668956 57 30 C57.61871457 23.84882607 57.94958803 18.03985576 55.3125 12.375 C41.17440734 -2.14520327 23.36462387 2.565684 3 2 C3 28.07 3 54.14 3 81 C2.01 81 1.02 81 0 81 C0 54.27 0 27.54 0 0 Z " fill="#6C4F1F" transform="translate(128,120)"/>
<path d="M0 0 C2.25 2.0625 2.25 2.0625 4 5 C4.99846153 6.2474077 6.02079096 7.47597465 7.0625 8.6875 C7.79146484 9.55955078 7.79146484 9.55955078 8.53515625 10.44921875 C10.1168153 12.23963241 10.1168153 12.23963241 13 14 C13 14.66 13 15.32 13 16 C9.04 15.67 5.08 15.34 1 15 C1.83462035 19.71058562 1.83462035 19.71058562 3 23 C-8.57983353 23.76294657 -8.57983353 23.76294657 -11.94140625 21.95703125 C-15.385362 18.45139272 -16.22484319 15.44972382 -16.4375 10.6875 C-16.376411 6.45569848 -16.24039059 5.32262948 -13.625 1.8125 C-9.46548818 -0.89118268 -4.75527106 -1.01193484 0 0 Z " fill="#FEFCF3" transform="translate(157,133)"/>
<path d="M0 0 C36 0 36 0 47 4 C46.34 4.66 45.68 5.32 45 6 C43.78352783 5.2733313 43.78352783 5.2733313 42.54248047 4.53198242 C38.27278079 2.68550651 34.91194428 2.5256018 30.3203125 2.48828125 C29.59900146 2.47164429 28.87769043 2.45500732 28.13452148 2.43786621 C25.46497124 2.38045502 22.7949327 2.34791116 20.125 2.3125 C11.153125 2.1578125 11.153125 2.1578125 2 2 C2.33 24.44 2.66 46.88 3 70 C3.33 68.68 3.66 67.36 4 66 C4.66 66 5.32 66 6 66 C6 64.68 6 63.36 6 62 C8 59.75 8 59.75 10 58 C10.66 58.33 11.32 58.66 12 59 C11.43732422 59.90878906 11.43732422 59.90878906 10.86328125 60.8359375 C7.25083793 66.75051725 4.00302364 72.75477385 1 79 C0.67 79 0.34 79 0 79 C0 52.93 0 26.86 0 0 Z " fill="#ECBC50" transform="translate(131,122)"/>
<path d="M0 0 C31.79412235 -0.99356632 58.24398272 9.03721806 81.765625 30.8359375 C92.1878037 40.93014554 101.29783352 54.15927519 106 68 C105.505 69.485 105.505 69.485 105 71 C104.50371094 69.97261719 104.00742187 68.94523437 103.49609375 67.88671875 C89.82924852 39.87477295 70.63281939 18.94031611 41 8 C39.99582031 7.62101562 38.99164063 7.24203125 37.95703125 6.8515625 C25.75449492 2.81942006 12.72385844 2.19501289 0 1 C0 0.67 0 0.34 0 0 Z " fill="#272727" transform="translate(154,54)"/>
<path d="M0 0 C0.66 0 1.32 0 2 0 C2.66 1.65 3.32 3.3 4 5 C6.31 5.33 8.62 5.66 11 6 C11 6.66 11 7.32 11 8 C10.01 8.556875 10.01 8.556875 9 9.125 C6.81895526 10.77406895 6.81895526 10.77406895 6.734375 12.97265625 C6.74856205 14.98367086 6.86840952 16.99324516 7 19 C6.195625 18.4740625 6.195625 18.4740625 5.375 17.9375 C1.37980731 16.36045025 -2.05410025 17.68470008 -6 19 C-5.938125 17.741875 -5.87625 16.48375 -5.8125 15.1875 C-5.7399651 11.86656162 -5.7399651 11.86656162 -7.5 9.125 C-7.995 8.75375 -8.49 8.3825 -9 8 C-9 7.34 -9 6.68 -9 6 C-6.69 6 -4.38 6 -2 6 C-1.34 4.02 -0.68 2.04 0 0 Z " fill="#7C5C52" transform="translate(243,147)"/>
<path d="M0 0 C3 2 3 2 4 5 C6.31 5.33 8.62 5.66 11 6 C11 6.66 11 7.32 11 8 C10.01 8.556875 10.01 8.556875 9 9.125 C6.81895526 10.77406895 6.81895526 10.77406895 6.734375 12.97265625 C6.74856205 14.98367086 6.86840952 16.99324516 7 19 C6.195625 18.4740625 6.195625 18.4740625 5.375 17.9375 C1.37980731 16.36045025 -2.05410025 17.68470008 -6 19 C-5.505 14.545 -5.505 14.545 -5 10 C-6.32 9.34 -7.64 8.68 -9 8 C-9 7.34 -9 6.68 -9 6 C-6.69 6 -4.38 6 -2 6 C-1.34 4.02 -0.68 2.04 0 0 Z " fill="#7D5B51" transform="translate(75,147)"/>
<path d="M0 0 C3.97697791 1.27831433 5.25108607 3.68124732 7.16796875 7.1484375 C9.89033494 13.20666086 9.97382211 20.7519886 8.50390625 27.1640625 C6.89144885 31.29997018 4.54024889 34.36539617 1 37 C-2.3125 36.8125 -2.3125 36.8125 -5 36 C-5 35.34 -5 34.68 -5 34 C-4.05125 33.401875 -3.1025 32.80375 -2.125 32.1875 C1.32412365 29.77311344 1.79817506 28.89055888 3 25 C3.25332231 23.11183473 3.44059633 21.21367852 3.5625 19.3125 C3.90171607 14.19656786 3.90171607 14.19656786 5 12 C5.039992 10.00039988 5.04346799 7.99952758 5 6 C4.34 6 3.68 6 3 6 C0 2.53846154 0 2.53846154 0 0 Z " fill="#7E5F2B" transform="translate(182,125)"/>
<path d="M0 0 C0.66 0 1.32 0 2 0 C2.67595315 1.41225926 3.34040059 2.83002905 4 4.25 C4.37125 5.03890625 4.7425 5.8278125 5.125 6.640625 C6 9 6 9 6 13 C-1.26 13 -8.52 13 -16 13 C-14.00853316 11.00853316 -12.78100378 10.39651519 -10.25 9.3125 C-6.20393507 7.37774532 -3.89917311 4.94415196 -1.2265625 1.390625 C-0.82179687 0.93171875 -0.41703125 0.4728125 0 0 Z " fill="#746040" transform="translate(186,188)"/>
<path d="M0 0 C0 0.33 0 0.66 0 1 C-1.23492187 1.02578125 -2.46984375 1.0515625 -3.7421875 1.078125 C-30.13637257 1.86060283 -53.17323535 9.27733309 -74 26 C-74 25.01 -74 24.02 -74 23 C-61.60144519 12.23618615 -45.60848657 5.49582424 -30 1 C-29.18917969 0.7421875 -28.37835938 0.484375 -27.54296875 0.21875 C-18.68685463 -2.13874448 -9.03167473 -0.66521505 0 0 Z " fill="#383838" transform="translate(166,55)"/>
<path d="M0 0 C12.09550656 -1.07024847 12.09550656 -1.07024847 16.7109375 1.5234375 C18.66667129 3.25323814 20.40473132 4.93407752 22 7 C22 7.33 22 7.66 22 8 C7.65201794 9.22690583 7.65201794 9.22690583 3.6015625 6.21875 C2.14238108 4.19724989 0.98097279 2.28893651 0 0 Z " fill="#6E5529" transform="translate(148,156)"/>
<path d="M0 0 C0.66 0.66 1.32 1.32 2 2 C1.79296875 4.4609375 1.79296875 4.4609375 1.1875 7.375 C0.89939453 8.80972656 0.89939453 8.80972656 0.60546875 10.2734375 C0.26527498 11.80540686 -0.09429798 13.33435736 -0.52026367 14.84472656 C-1.07366721 17.33095885 -1.19598554 19.66524926 -1.28125 22.2109375 C-1.31863281 23.20867187 -1.35601562 24.20640625 -1.39453125 25.234375 C-1.42933594 26.27078125 -1.46414062 27.3071875 -1.5 28.375 C-1.91893411 40.75683045 -1.91893411 40.75683045 -3 46 C-3.33 46 -3.66 46 -4 46 C-4.44058226 30.14242773 -4.53235982 15.29671438 0 0 Z " fill="#3D3D3D" transform="translate(58,128)"/>
<path d="M0 0 C-13.98946623 7.36119977 -29.6781952 6.13505998 -45 6 C-45 5.67 -45 5.34 -45 5 C-41.10343938 4.30317113 -37.28169416 3.8185751 -33.33203125 3.5703125 C-31.74358398 3.46009766 -31.74358398 3.46009766 -30.12304688 3.34765625 C-27.93597243 3.20056098 -25.74846059 3.0598156 -23.56054688 2.92578125 C-17.15044114 2.46819354 -11.37458305 1.48859801 -5.2487793 -0.48095703 C-3 -1 -3 -1 0 0 Z " fill="#3C3C3C" transform="translate(194,261)"/>
<path d="M0 0 C0.66 0.33 1.32 0.66 2 1 C-6.92552435 10.09907622 -20.421123 18.9769705 -33 22 C-33.99 21.67 -34.98 21.34 -36 21 C-35.05640625 20.57589844 -34.1128125 20.15179688 -33.140625 19.71484375 C-21.23123673 14.30120195 -10.11587797 8.40435316 0 0 Z " fill="#2B2B2B" transform="translate(229,239)"/>
<path d="M0 0 C1.98 0 3.96 0 6 0 C7.125 4.75 7.125 4.75 6 7 C6.99 7.33 7.98 7.66 9 8 C9 8.66 9 9.32 9 10 C8.01 10 7.02 10 6 10 C6 9.34 6 8.68 6 8 C5.34 8 4.68 8 4 8 C4 8.99 4 9.98 4 11 C3.01 10.67 2.02 10.34 1 10 C0.67 6.7 0.34 3.4 0 0 Z " fill="#7C655F" transform="translate(142,66)"/>
<path d="M0 0 C0.99 0 1.98 0 3 0 C3 1.32 3 2.64 3 4 C3.66 4 4.32 4 5 4 C5 3.01 5 2.02 5 1 C5.99 1 6.98 1 8 1 C8 4.3 8 7.6 8 11 C7.01 11 6.02 11 5 11 C5 9.68 5 8.36 5 7 C4.01 7 3.02 7 2 7 C2 7.99 2 8.98 2 10 C1.34 10 0.68 10 0 10 C0 6.7 0 3.4 0 0 Z " fill="#8D7772" transform="translate(151,243)"/>
<path d="M0 0 C3.97697791 1.27831433 5.25108607 3.68124732 7.16796875 7.1484375 C8.99531037 11.21491603 9.11076867 14.80928237 9.0625 19.25 C9.05347656 20.32765625 9.04445312 21.4053125 9.03515625 22.515625 C9.02355469 23.33546875 9.01195312 24.1553125 9 25 C8.34 25.33 7.68 25.66 7 26 C6.66131223 23.79248152 6.32928311 21.58394089 6 19.375 C5.814375 18.14523438 5.62875 16.91546875 5.4375 15.6484375 C5.04597484 12.3833973 4.91919076 9.28287549 5 6 C4.34 6 3.68 6 3 6 C0 2.53846154 0 2.53846154 0 0 Z " fill="#6F5B40" transform="translate(182,125)"/>
<path d="M0 0 C0.53625 0.2475 1.0725 0.495 1.625 0.75 C1.625 2.4 1.625 4.05 1.625 5.75 C0.635 5.75 -0.355 5.75 -1.375 5.75 C-1.705 6.74 -2.035 7.73 -2.375 8.75 C-4.25 8.5 -4.25 8.5 -6.375 7.75 C-7.625 5.6875 -7.625 5.6875 -8.375 3.75 C-2.95961538 -0.31153846 -2.95961538 -0.31153846 0 0 Z " fill="#98817A" transform="translate(90.375,202.25)"/>
<path d="M0 0 C0.99 0 1.98 0 3 0 C3.33 3.63 3.66 7.26 4 11 C3.01 10.67 2.02 10.34 1 10 C1 9.34 1 8.68 1 8 C-1.31 8.33 -3.62 8.66 -6 9 C-4.4705003 5.55862568 -2.54630448 2.7777867 0 0 Z " fill="#7F6A62" transform="translate(138,241)"/>
<path d="M0 0 C1.32 0.33 2.64 0.66 4 1 C4.33 2.65 4.66 4.3 5 6 C3.68 6.33 2.36 6.66 1 7 C1 8.32 1 9.64 1 11 C0.34 11 -0.32 11 -1 11 C-1.33 9.68 -1.66 8.36 -2 7 C-2.99 7.33 -3.98 7.66 -5 8 C-3.62845496 5.04590299 -2.01136276 2.55991624 0 0 Z " fill="#8E7670" transform="translate(107,225)"/>
<path d="M0 0 C0.66 0 1.32 0 2 0 C0.79157144 4.43090471 -0.51668565 6.98112756 -4 10 C-1.03 10.495 -1.03 10.495 2 11 C2 11.33 2 11.66 2 12 C-2.95 12 -7.9 12 -13 12 C-11.68 11.01 -10.36 10.02 -9 9 C-7.78128118 8.01268349 -6.57254159 7.01289861 -5.375 6 C-4.78460938 5.505 -4.19421875 5.01 -3.5859375 4.5 C-1.76523005 2.88979334 -1.76523005 2.88979334 0 0 Z " fill="#715320" transform="translate(186,188)"/>
<path d="M0 0 C0.99 0.33 1.98 0.66 3 1 C3.33 4.3 3.66 7.6 4 11 C3.01 11 2.02 11 1 11 C1 10.01 1 9.02 1 8 C-1.31 8.33 -3.62 8.66 -6 9 C-4.02 6.03 -2.04 3.06 0 0 Z " fill="#9D8781" transform="translate(176,67)"/>
<path d="M0 0 C-0.33 2.31 -0.66 4.62 -1 7 C-0.071875 6.2575 -0.071875 6.2575 0.875 5.5 C3 4 3 4 5 4 C3.55922954 7.36179774 1.75249979 9.59156268 -1 12 C-1.66 12 -2.32 12 -3 12 C-3 9.69 -3 7.38 -3 5 C-4.98 5.99 -4.98 5.99 -7 7 C-3.86206897 0 -3.86206897 0 0 0 Z " fill="#7C655C" transform="translate(219,88)"/>
<path d="M0 0 C2.31 0 4.62 0 7 0 C7.309375 0.94875 7.61875 1.8975 7.9375 2.875 C8.87394742 5.86080408 8.87394742 5.86080408 10 8 C7.83125748 7.49396008 6.00032373 7.00016187 4 6 C4.33 7.32 4.66 8.64 5 10 C4.34 10 3.68 10 3 10 C0 3.375 0 3.375 0 0 Z " fill="#836D66" transform="translate(178,241)"/>
<path d="M0 0 C3.81684226 1.55500981 6.19195732 4.03595495 9 7 C7 8 7 8 3 8 C2.67 8.99 2.34 9.98 2 11 C1.34 11 0.68 11 0 11 C-0.19406478 9.35492782 -0.38007935 7.70890406 -0.5625 6.0625 C-0.66691406 5.14597656 -0.77132812 4.22945312 -0.87890625 3.28515625 C-0.91886719 2.53105469 -0.95882812 1.77695313 -1 1 C-0.67 0.67 -0.34 0.34 0 0 Z " fill="#795D58" transform="translate(196,234)"/>
<path d="M0 0 C7.42857143 1 7.42857143 1 11 2 C11 2.66 11 3.32 11 4 C9.68 4 8.36 4 7 4 C6.67 5.98 6.34 7.96 6 10 C3.66475218 7.74259377 1.81294927 5.7194239 0 3 C0 2.01 0 1.02 0 0 Z " fill="#775F58" transform="translate(220,213)"/>
<path d="M0 0 C0.66 0 1.32 0 2 0 C1.67 1.32 1.34 2.64 1 4 C2.65 3.34 4.3 2.68 6 2 C6.33 2.66 6.66 3.32 7 4 C5.68 4.33 4.36 4.66 3 5 C3.33 7.31 3.66 9.62 4 12 C3.01 11.67 2.02 11.34 1 11 C0.67 10.01 0.34 9.02 0 8 C-1.32 8.33 -2.64 8.66 -4 9 C-2.80100302 5.9168649 -1.52299523 2.93720508 0 0 Z " fill="#78635E" transform="translate(120,234)"/>
<path d="M0 0 C0.33 0 0.66 0 1 0 C1.33 13.53 1.66 27.06 2 41 C1.01 41 0.02 41 -1 41 C-0.67 27.47 -0.34 13.94 0 0 Z " fill="#6B5028" transform="translate(129,160)"/>
<path d="M0 0 C0.66 0.33 1.32 0.66 2 1 C1.5 2.8125 1.5 2.8125 0 5 C-1.86406742 5.76559912 -3.73782901 6.51562532 -5.65234375 7.14453125 C-8.26378657 8.0961219 -10.61054533 9.31853866 -13.0625 10.625 C-17.15213754 12.72986754 -20.42533943 13.70165257 -25 14 C-22.50395244 11.50395244 -20.33367298 10.96434691 -17 9.8125 C-10.55916156 7.41957448 -5.38926734 4.22139 0 0 Z " fill="#5A5A5A" transform="translate(204,216)"/>
<path d="M0 0 C0.66 0 1.32 0 2 0 C3.85064319 3.12296038 4.29356154 5.37940768 4 9 C3 10 3 10 -0.0625 10.0625 C-1.031875 10.041875 -2.00125 10.02125 -3 10 C-4.25664978 7.09399739 -5 5.20395416 -5 2 C-4.34 2 -3.68 2 -3 2 C-2.566875 3.2065625 -2.566875 3.2065625 -2.125 4.4375 C-1.26737432 7.1326468 -1.26737432 7.1326468 1 8 C0.67 5.36 0.34 2.72 0 0 Z " fill="#826A65" transform="translate(130,70)"/>
<path d="M0 0 C0 3.62453269 -0.92469613 5.07920195 -3 8 C-3.99 8.33 -4.98 8.66 -6 9 C-3.69 9.33 -1.38 9.66 1 10 C-1 12 -1 12 -3.3828125 12.1953125 C-4.28773438 12.17210937 -5.19265625 12.14890625 -6.125 12.125 C-7.49011719 12.09792969 -7.49011719 12.09792969 -8.8828125 12.0703125 C-9.58148438 12.04710937 -10.28015625 12.02390625 -11 12 C-9.85996765 8.57990294 -8.77829802 7.71130558 -6.0625 5.4375 C-3.96656037 3.66869432 -1.94005112 1.94005112 0 0 Z " fill="#E8C66D" transform="translate(171,189)"/>
<path d="M0 0 C3.88779356 3.71875906 3.88779356 3.71875906 4.16796875 6.91796875 C4.21190969 12.02390654 3.64645608 16.16353527 2 21 C-0.06723714 17.89914429 -0.24497423 17.27068319 -0.1953125 13.76953125 C-0.18886719 12.96708984 -0.18242187 12.16464844 -0.17578125 11.33789062 C-0.15902344 10.50451172 -0.14226562 9.67113281 -0.125 8.8125 C-0.11597656 7.96751953 -0.10695312 7.12253906 -0.09765625 6.25195312 C-0.07410703 4.16784757 -0.03823647 2.08388783 0 0 Z " fill="#FCF4D4" transform="translate(187,169)"/>
<path d="M0 0 C1.17219543 0.78345715 2.33763668 1.57702836 3.5 2.375 C4.1496875 2.81585938 4.799375 3.25671875 5.46875 3.7109375 C6.22671875 4.34902344 6.22671875 4.34902344 7 5 C7 5.66 7 6.32 7 7 C3.04 6.67 -0.92 6.34 -5 6 C-5.66 7.32 -6.32 8.64 -7 10 C-7 8.02 -7 6.04 -7 4 C-4.69 3.34 -2.38 2.68 0 2 C0 1.34 0 0.68 0 0 Z " fill="#FDF3C9" transform="translate(163,142)"/>
<path d="M0 0 C0 0.66 0 1.32 0 2 C-0.66 2 -1.32 2 -2 2 C-2 2.66 -2 3.32 -2 4 C-0.68 3.67 0.64 3.34 2 3 C1.67 4.32 1.34 5.64 1 7 C2.32 6.67 3.64 6.34 5 6 C4.34 7.32 3.68 8.64 3 10 C-0.36179774 8.55922954 -2.59156268 6.75249979 -5 4 C-5 3.34 -5 2.68 -5 2 C-2 0 -2 0 0 0 Z " fill="#77615C" transform="translate(102,87)"/>
<path d="M0 0 C1.65 0 3.3 0 5 0 C5.33 0.66 5.66 1.32 6 2 C5.01 2.33 4.02 2.66 3 3 C3.33 3.33 3.66 3.66 4 4 C4.04063832 5.66617115 4.042721 7.33388095 4 9 C2.35 9 0.7 9 -1 9 C-1.66 7.68 -2.32 6.36 -3 5 C-0.525 5.99 -0.525 5.99 2 7 C1.34 6.01 0.68 5.02 0 4 C0 2.68 0 1.36 0 0 Z " fill="#79625B" transform="translate(191,73)"/>
<path d="M0 0 C0.66 0.33 1.32 0.66 2 1 C1.61328125 1.64066406 1.2265625 2.28132812 0.828125 2.94140625 C-2.17469727 7.92876699 -5.13544818 12.93194677 -8 18 C-8.33 18 -8.66 18 -9 18 C-9 16.35 -9 14.7 -9 13 C-8.34 12.67 -7.68 12.34 -7 12 C-6.34786708 9.97536745 -6.34786708 9.97536745 -6 8 C-5.34 8 -4.68 8 -4 8 C-4 6.68 -4 5.36 -4 4 C-2 1.75 -2 1.75 0 0 Z " fill="#F2C964" transform="translate(141,180)"/>
<path d="M0 0 C4.68904588 1.42300113 7.51610475 4.15696334 10.8125 7.625 C11.31458984 8.140625 11.81667969 8.65625 12.33398438 9.1875 C13.56296227 10.45159154 14.78246001 11.72488806 16 13 C15.34 13.66 14.68 14.32 14 15 C13.175 13.989375 12.35 12.97875 11.5 11.9375 C8.46756997 8.37548291 5.12448108 5.37737559 1.5390625 2.3828125 C1.03117188 1.92648438 0.52328125 1.47015625 0 1 C0 0.67 0 0.34 0 0 Z " fill="#3B3B3B" transform="translate(226,78)"/>
<path d="M0 0 C0.99 0.99 1.98 1.98 3 3 C2.67 3.66 2.34 4.32 2 5 C1.01 4.34 0.02 3.68 -1 3 C-0.34 4.32 0.32 5.64 1 7 C-2 7 -2 7 -4 6 C-3.34 7.32 -2.68 8.64 -2 10 C-3.32 9.34 -4.64 8.68 -6 8 C-6 5 -6 5 -4.6875 3.61328125 C-3.125 2.40885417 -1.5625 1.20442708 0 0 Z " fill="#755E5A" transform="translate(98,214)"/>
<path d="M0 0 C2.64 0 5.28 0 8 0 C8 0.66 8 1.32 8 2 C7.34 2 6.68 2 6 2 C6 2.99 6 3.98 6 5 C9.63 5 13.26 5 17 5 C17 5.33 17 5.66 17 6 C5.20807175 6.92017937 5.20807175 6.92017937 2.24609375 4.6640625 C1.1875 3 1.1875 3 0 0 Z " fill="#7B6133" transform="translate(150,158)"/>
<path d="M0 0 C0.66 0 1.32 0 2 0 C2.309375 1.093125 2.61875 2.18625 2.9375 3.3125 C3.58337897 5.55407994 4.2623117 7.7869351 5 10 C4.443125 9.71125 3.88625 9.4225 3.3125 9.125 C0.91505355 7.9586747 -1.51596939 6.9660119 -4 6 C-4 5.34 -4 4.68 -4 4 C-2.68 4 -1.36 4 0 4 C0 2.68 0 1.36 0 0 Z " fill="#78635E" transform="translate(211,223)"/>
<path d="M0 0 C0.99 0.33 1.98 0.66 3 1 C1.68 2.32 0.36 3.64 -1 5 C2.96 5 6.92 5 11 5 C11 5.33 11 5.66 11 6 C8.89646505 6.0810206 6.79204048 6.13919907 4.6875 6.1875 C3.51574219 6.22230469 2.34398437 6.25710937 1.13671875 6.29296875 C-2 6 -2 6 -3.91796875 4.48828125 C-4.27503906 3.99714844 -4.63210937 3.50601563 -5 3 C-2.6875 1.4375 -2.6875 1.4375 0 0 Z " fill="#FBFADC" transform="translate(161,196)"/>
<path d="M0 0 C0.66 0 1.32 0 2 0 C2.103125 0.598125 2.20625 1.19625 2.3125 1.8125 C3.09385053 4.29861534 4.14895416 5.22943442 6 7 C6 7.66 6 8.32 6 9 C5.443125 8.690625 4.88625 8.38125 4.3125 8.0625 C1.87459567 6.94238179 -0.36224186 6.43962636 -3 6 C-1.125 1.125 -1.125 1.125 0 0 Z " fill="#7A6560" transform="translate(89,98)"/>
<path d="M0 0 C0.87527344 0.00773438 1.75054687 0.01546875 2.65234375 0.0234375 C3.53019531 0.01570312 4.40804687 0.00796875 5.3125 0 C6.43978516 0.19722656 6.43978516 0.19722656 7.58984375 0.3984375 C8.24984375 1.3884375 8.90984375 2.3784375 9.58984375 3.3984375 C4.63984375 3.3984375 -0.31015625 3.3984375 -5.41015625 3.3984375 C-2.41015625 0.3984375 -2.41015625 0.3984375 0 0 Z " fill="#FEF6CE" transform="translate(149.41015625,132.6015625)"/>
<path d="M0 0 C2.62616695 0.2626167 3.76431536 0.75863622 5.62109375 2.66015625 C7.40847831 5.69314024 7.30143434 7.75601365 7.1875 11.25 C7.16042969 12.32765625 7.13335937 13.4053125 7.10546875 14.515625 C7.07066406 15.33546875 7.03585938 16.1553125 7 17 C6.67 17 6.34 17 6 17 C5.95101562 16.39671875 5.90203125 15.7934375 5.8515625 15.171875 C5.77679688 14.37265625 5.70203125 13.5734375 5.625 12.75 C5.52058594 11.56664062 5.52058594 11.56664062 5.4140625 10.359375 C4.77463588 6.71584972 3.73502605 4.60531557 0.875 2.25 C0.25625 1.8375 -0.3625 1.425 -1 1 C-0.67 0.67 -0.34 0.34 0 0 Z " fill="#E9C160" transform="translate(170,163)"/>
<path d="M0 0 C-0.47202486 4.24822374 -2.96655518 6.19989709 -6 9 C-6.66 8.67 -7.32 8.34 -8 8 C-6.48291727 4.46014029 -4.24676932 0 0 0 Z " fill="#6C5636" transform="translate(189,153)"/>
<path d="M0 0 C0.99 0.33 1.98 0.66 3 1 C4.1875 3.5625 4.1875 3.5625 5 6 C6.32 5.67 7.64 5.34 9 5 C8.67 5.99 8.34 6.98 8 8 C5.9375 8.6875 5.9375 8.6875 4 9 C0 2.25 0 2.25 0 0 Z " fill="#7A6661" transform="translate(110,79)"/>
<path d="M0 0 C0.66 0 1.32 0 2 0 C2 1.65 2 3.3 2 5 C1.01 4.67 0.02 4.34 -1 4 C-0.67 4.99 -0.34 5.98 0 7 C-0.99 7 -1.98 7 -3 7 C-3 7.66 -3 8.32 -3 9 C-3.99 8.67 -4.98 8.34 -6 8 C-5.04956626 6.66102417 -4.08940853 5.32894573 -3.125 4 C-2.59132812 3.2575 -2.05765625 2.515 -1.5078125 1.75 C-1.01023438 1.1725 -0.51265625 0.595 0 0 Z " fill="#745D58" transform="translate(176,67)"/>
<path d="M0 0 C0.33 0 0.66 0 1 0 C1.25 2.8125 1.25 2.8125 1 6 C-1 7.6875 -1 7.6875 -3 9 C-3 9.99 -3 10.98 -3 12 C-4.65 11.67 -6.3 11.34 -8 11 C-8 10.34 -8 9.68 -8 9 C-7.05125 8.401875 -6.1025 7.80375 -5.125 7.1875 C-1.85050303 4.89535212 -1.04394363 3.75819708 0 0 Z " fill="#825E19" transform="translate(185,150)"/>
<path d="M0 0 C0.66 0.66 1.32 1.32 2 2 C0.23569031 3.34195372 -1.5366791 4.67331668 -3.3125 6 C-4.29863281 6.7425 -5.28476563 7.485 -6.30078125 8.25 C-9 10 -9 10 -12 10 C-8.29909479 6.0747975 -4.45040344 3.05419844 0 0 Z " fill="#323232" transform="translate(103,70)"/>
<path d="M0 0 C1.98 0 3.96 0 6 0 C6 0.33 6 0.66 6 1 C4.35 1 2.7 1 1 1 C2.98 1.495 2.98 1.495 5 2 C5 2.99 5 3.98 5 5 C4.01 5 3.02 5 2 5 C2 6.65 2 8.3 2 10 C1.67 10 1.34 10 1 10 C0.67 6.7 0.34 3.4 0 0 Z " fill="#AF9A95" transform="translate(142,66)"/>
<path d="M0 0 C0.33 0.66 0.66 1.32 1 2 C1.99 2 2.98 2 4 2 C4.33 1.34 4.66 0.68 5 0 C5 1.32 5 2.64 5 4 C4.01 4 3.02 4 2 4 C1.67 4.99 1.34 5.98 1 7 C-0.32 6.67 -1.64 6.34 -3 6 C-2.67 5.34 -2.34 4.68 -2 4 C-1.34 4.33 -0.68 4.66 0 5 C0 3.35 0 1.7 0 0 Z " fill="#715751" transform="translate(87,204)"/>
<path d="M0 0 C4.62 0 9.24 0 14 0 C14 0.33 14 0.66 14 1 C12.73542969 1.05607422 12.73542969 1.05607422 11.4453125 1.11328125 C9.80175781 1.21189453 9.80175781 1.21189453 8.125 1.3125 C7.03445312 1.37050781 5.94390625 1.42851562 4.8203125 1.48828125 C3.42425781 1.74158203 3.42425781 1.74158203 2 2 C1.01 3.485 1.01 3.485 0 5 C-0.66 5 -1.32 5 -2 5 C-1.34 3.35 -0.68 1.7 0 0 Z " fill="#F7F1DA" transform="translate(155,164)"/>
<path d="M0 0 C0 1.32 0 2.64 0 4 C-2.31 4.33 -4.62 4.66 -7 5 C-6.1875 3.0625 -6.1875 3.0625 -5 1 C-2 0 -2 0 0 0 Z " fill="#967F79" transform="translate(139,245)"/>
<path d="M0 0 C0.66 0.66 1.32 1.32 2 2 C-0.31 4.31 -2.62 6.62 -5 9 C-5.66 8.34 -6.32 7.68 -7 7 C-4.69 4.69 -2.38 2.38 0 0 Z " fill="#444444" transform="translate(237,231)"/>
<path d="M0 0 C0.89674777 2.51089376 1.13172674 3.64535109 0.1875 6.1875 C-1 8 -1 8 -3 9 C-3.33 9.99 -3.66 10.98 -4 12 C-4.66 12 -5.32 12 -6 12 C-4.43358249 7.69235185 -2.31663844 3.93828536 0 0 Z " fill="#FCF3CD" transform="translate(138,188)"/>
<path d="M0 0 C0.99 0.495 0.99 0.495 2 1 C3.14077657 4.42232972 3.09815117 7.08673217 3.0625 10.6875 C3.05347656 11.86699219 3.04445312 13.04648438 3.03515625 14.26171875 C3.02355469 15.16535156 3.01195312 16.06898438 3 17 C2.67 17 2.34 17 2 17 C1.93941406 16.21753906 1.87882813 15.43507812 1.81640625 14.62890625 C1.73261719 13.61699219 1.64882812 12.60507813 1.5625 11.5625 C1.48128906 10.55316406 1.40007812 9.54382813 1.31640625 8.50390625 C1.26788532 6.06359221 1.26788532 6.06359221 0 5 C-0.04063832 3.33382885 -0.042721 1.66611905 0 0 Z " fill="#F1C962" transform="translate(185,167)"/>
<path d="M0 0 C0.66 0.66 1.32 1.32 2 2 C1.7578125 4.6015625 1.7578125 4.6015625 1.125 7.625 C0.81949219 9.12933594 0.81949219 9.12933594 0.5078125 10.6640625 C0.34023438 11.43492187 0.17265625 12.20578125 0 13 C-2 10 -2 10 -1.7578125 7.51953125 C-1.54898438 6.62621094 -1.34015625 5.73289063 -1.125 4.8125 C-0.92132813 3.91144531 -0.71765625 3.01039063 -0.5078125 2.08203125 C-0.34023438 1.39496094 -0.17265625 0.70789063 0 0 Z " fill="#565656" transform="translate(58,128)"/>
<path d="M0 0 C0.66 0 1.32 0 2 0 C1.67 1.65 1.34 3.3 1 5 C0.01 5 -0.98 5 -2 5 C-2 6.32 -2 7.64 -2 9 C-2.66 9 -3.32 9 -4 9 C-3.67 7.02 -3.34 5.04 -3 3 C-2.01 3 -1.02 3 0 3 C0 2.01 0 1.02 0 0 Z " fill="#775E57" transform="translate(110,227)"/>
<path d="M0 0 C0.99 0 1.98 0 3 0 C1.63055898 2.94956528 0.12169591 5.52468811 -2 8 C-2.66 8 -3.32 8 -4 8 C-2.87548273 5.0280615 -1.77706209 2.66559313 0 0 Z " fill="#7C6A64" transform="translate(206,80)"/>
<path d="M0 0 C0.66 0 1.32 0 2 0 C2.433125 1.2065625 2.433125 1.2065625 2.875 2.4375 C3.73262568 5.1326468 3.73262568 5.1326468 6 6 C6 6.66 6 7.32 6 8 C4.68 8 3.36 8 2 8 C0.74335022 5.09399739 0 3.20395416 0 0 Z " fill="#786056" transform="translate(125,72)"/>
<path d="M0 0 C2.31 0.33 4.62 0.66 7 1 C6.34 2.32 5.68 3.64 5 5 C4.34 4.67 3.68 4.34 3 4 C3 3.34 3 2.68 3 2 C2.01 2.33 1.02 2.66 0 3 C0 2.01 0 1.02 0 0 Z " fill="#99807B" transform="translate(220,213)"/>
<path d="M0 0 C0.66 0.66 1.32 1.32 2 2 C1.7578125 4.3828125 1.7578125 4.3828125 1.125 7.125 C0.92132813 8.03507813 0.71765625 8.94515625 0.5078125 9.8828125 C0.34023438 10.58148438 0.17265625 11.28015625 0 12 C-1.36398513 9.75700222 -2.05762059 8.50929167 -1.7578125 5.859375 C-1.171875 3.90625 -0.5859375 1.953125 0 0 Z " fill="#4A4A4A" transform="translate(262,183)"/>
<path d="M0 0 C1.98 0.495 1.98 0.495 4 1 C3.01 1.495 3.01 1.495 2 2 C2.57584432 4.38564077 3.22227595 6.66682784 4 9 C3.34 9 2.68 9 2 9 C0.3125 7.3125 0.3125 7.3125 -1 5 C-0.6875 2.25 -0.6875 2.25 0 0 Z " fill="#EFCA70" transform="translate(158,147)"/>
<path d="M0 0 C0 0.99 0 1.98 0 3 C-0.99 3 -1.98 3 -3 3 C-3.66 4.32 -4.32 5.64 -5 7 C-5.66 7 -6.32 7 -7 7 C-3.86206897 0 -3.86206897 0 0 0 Z " fill="#6D554F" transform="translate(219,88)"/>
<path d="M0 0 C0.66 0 1.32 0 2 0 C2.66 1.98 3.32 3.96 4 6 C2.35 5.67 0.7 5.34 -1 5 C-0.67 3.35 -0.34 1.7 0 0 Z " fill="#9E877C" transform="translate(196,234)"/>
<path d="M0 0 C0.33 0.66 0.66 1.32 1 2 C1.66 2 2.32 2 3 2 C3 2.99 3 3.98 3 5 C3.66 5.33 4.32 5.66 5 6 C3.68 6.33 2.36 6.66 1 7 C1 6.01 1 5.02 1 4 C0.01 4 -0.98 4 -2 4 C-2 3.34 -2 2.68 -2 2 C-1.34 2 -0.68 2 0 2 C0 1.34 0 0.68 0 0 Z " fill="#E4D6D3" transform="translate(102,87)"/>
<path d="M0 0 C0.99 0.33 1.98 0.66 3 1 C2.67 1.99 2.34 2.98 2 4 C-0.0625 4.6875 -0.0625 4.6875 -2 5 C-1.34 3.35 -0.68 1.7 0 0 Z " fill="#8B776E" transform="translate(118,238)"/>
<path d="M0 0 C-2.3125 1.5625 -2.3125 1.5625 -5 3 C-5.99 2.67 -6.98 2.34 -8 2 C-8 1.34 -8 0.68 -8 0 C-4.71303767 -0.79953138 -3.28976808 -1.09658936 0 0 Z " fill="#ECBF4B" transform="translate(180,196)"/>
<path d="M0 0 C0.66 0.33 1.32 0.66 2 1 C0.68 3.64 -0.64 6.28 -2 9 C-3 6 -3 6 -1.5625 2.8125 C-1.046875 1.884375 -0.53125 0.95625 0 0 Z " fill="#FEF8D9" transform="translate(173,181)"/>
</svg>
